<?xml version="1.0" encoding="UTF-8" standalone="no"?>
<!-- Created with Inkscape (http://www.inkscape.org/) -->

<svg
   width="600"
   height="400"
   viewBox="0 0 600 400"
   version="1.1"
   id="svg1"
   xml:space="preserve"
   inkscape:export-filename="Logo.png"
   inkscape:export-xdpi="96"
   inkscape:export-ydpi="96"
   inkscape:version="1.4.3 (0d15f75, 2025-12-25)"
   sodipodi:docname="Logo.svg"
   xmlns:inkscape="http://www.inkscape.org/namespaces/inkscape"
   xmlns:sodipodi="http://sodipodi.sourceforge.net/DTD/sodipodi-0.dtd"
   xmlns="http://www.w3.org/2000/svg"
   xmlns:svg="http://www.w3.org/2000/svg"><sodipodi:namedview
     id="namedview1"
     pagecolor="#ffffff"
     bordercolor="#000000"
     borderopacity="0.25"
     inkscape:showpageshadow="2"
     inkscape:pageopacity="0.0"
     inkscape:pagecheckerboard="0"
     inkscape:deskcolor="#d1d1d1"
     inkscape:document-units="px"
     showgrid="false"
     showguides="true"
     inkscape:zoom="0.67447918"
     inkscape:cx="341.74517"
     inkscape:cy="103.04247"
     inkscape:window-width="1920"
     inkscape:window-height="1017"
     inkscape:window-x="-8"
     inkscape:window-y="-8"
     inkscape:window-maximized="1"
     inkscape:current-layer="svg1"><inkscape:grid
       id="grid1"
       units="px"
       originx="0"
       originy="0"
       spacingx="1"
       spacingy="1"
       empcolor="#0099e5"
       empopacity="0.30196078"
       color="#0099e5"
       opacity="0.14901961"
       empspacing="5"
       dotted="false"
       gridanglex="30"
       gridanglez="30"
       visible="false" /><sodipodi:guide
       position="1920,880"
       orientation="1080,0"
       id="guide2"
       inkscape:locked="false" /><sodipodi:guide
       position="1920,-200"
       orientation="0,-1920"
       id="guide3"
       inkscape:locked="false" /></sodipodi:namedview><defs
     id="defs1"><marker
       id="DistanceX"
       orient="auto"
       refX="0"
       refY="0"
       style="overflow:visible"><path
         d="M 3,-3 -3,3 M 0,-5 V 5"
         style="stroke:#000000;stroke-width:0.5"
         id="path1" /></marker><pattern
       id="Hatch"
       patternUnits="userSpaceOnUse"
       width="8"
       height="8"
       x="0"
       y="0"><path
         d="M8 4 l-4,4"
         stroke="#000000"
         stroke-width="0.25"
         linecap="square"
         id="path2" /><path
         d="M6 2 l-4,4"
         stroke="#000000"
         stroke-width="0.25"
         linecap="square"
         id="path3" /><path
         d="M4 0 l-4,4"
         stroke="#000000"
         stroke-width="0.25"
         linecap="square"
         id="path4" /></pattern><symbol
       id="*Model_Space" /><symbol
       id="*Paper_Space" /><symbol
       id="*Paper_Space0" /><symbol
       id="*U1"><path
         d="m 34.015748,1093.0939 a 202.20472,202.20472 0 0 0 -68.031496,0"
         style="fill:none;stroke:#000000"
         id="path5" /><path
         style="fill:none;stroke:#000000"
         d="m 34.0157,1093.09 v 61.74"
         id="path6" /><path
         style="fill:none;stroke:#000000"
         d="m -34.0157,1093.09 v 61.74"
         id="path7" /></symbol><symbol
       id="*U2"><path
         d="m 22.677165,1105.9543 a 202.20472,202.20472 0 0 0 -45.35433,0"
         style="fill:none;stroke:#000000"
         id="path8" /><path
         style="fill:none;stroke:#000000"
         d="m 22.6772,1140.36 v -34.41"
         id="path9" /><path
         style="fill:none;stroke:#000000"
         d="m -22.6772,1140.36 v -34.41"
         id="path10" /></symbol><symbol
       id="_None" /></defs><g
     inkscape:label="Capa 1"
     inkscape:groupmode="layer"
     id="layer1" /><g
     id="g25"
     transform="translate(-739.57057,-243.60482)"><g
       id="g3"
       transform="matrix(1.0238732,0,0,1.0238732,847.96193,-158.27105)"
       style="display:inline;stroke:none"><g
         id="path1-1"
         inkscape:transform-center-x="-0.090227599"
         inkscape:transform-center-y="32.926841"
         transform="matrix(0.95734511,0.01160277,-0.01160277,0.95734511,4.1168434,18.949807)"
         style="stroke:none"><path
           style="color:#000000;display:inline;fill:#008000;fill-opacity:0.999999;stroke:none;-inkscape-stroke:none"
           d="m 262.4247,689.42085 -121.63512,-205.54226 98.39513,-1.05801 64.89332,113.73973 64.85639,-115.13489 6.84412,-0.0736 3.83342,-0.0412 z"
           id="path4-8" /><path
           style="color:#000000;display:none;fill:#000000;stroke:none;stroke-width:1.00006;stroke-dasharray:none"
           d="m 381.1543,480.39844 -5.38477,0.0566 -7.36133,0.0801 -64.33398,114.20703 -64.37305,-112.82422 -100.47461,1.08008 123.2168,208.21484 z m -3.08594,1.82617 -115.66406,205.4043 -120.05274,-202.8711 96.31641,-1.03515 65.41406,114.65429 65.37891,-116.06054 6.32812,-0.0684 z"
           id="path5-9"
           sodipodi:insensitive="true" /></g><g
         id="path2-8"
         inkscape:transform-center-x="-0.30992436"
         inkscape:transform-center-y="-24.28393"
         transform="matrix(0.99266715,0,0,0.99266715,1.9532775,2.4319196)"
         style="stroke:none"
         inkscape:label="path2-8"><path
           style="color:#000000;fill:#000080;fill-opacity:0.999999;stroke:none;-inkscape-stroke:none"
           d="m 164.04571,685.73073 -99.668402,-1.15883 84.743432,-148.943 49.28881,87.21753 z"
           id="path6-8" /><path
           style="color:#000000;display:none;fill:#000000;stroke:none;-inkscape-stroke:none"
           d="m 149.12305,533.8125 -86.277347,151.63867 101.728517,1.18164 34.86133,-63.79297 z m -0.006,3.63477 48.26758,85.40625 -33.86719,61.9746 -97.609377,-1.13476 z"
           id="path7-9" /></g><g
         id="path3-7"
         inkscape:transform-center-x="-0.5671033"
         inkscape:transform-center-y="-29.985251"
         transform="matrix(0.93737712,0.01401322,-0.01401322,0.93737712,27.475889,40.925135)"
         style="stroke:none"><path
           style="color:#000000;fill:#000080;fill-opacity:0.999999;stroke:none;-inkscape-stroke:none"
           d="M 485.55779,677.76907 379.72937,678.28356 318.76974,574.3842 372.56126,483.45467 Z"
           id="path8-8" /><path
           style="color:#000000;display:none;fill:#000000;stroke:none;-inkscape-stroke:none"
           d="m 372.56836,481.68359 -54.83984,92.69922 61.48828,104.79883 107.89453,-0.52344 z m -0.0137,3.54102 111.45117,191.65625 -103.76367,0.50391 -60.43164,-102.99805 z"
           id="path9-4" /></g></g><g
       id="g23"
       transform="rotate(-2.5789029,875.02719,444.91573)"><g
         id="g24"
         transform="rotate(-3.7280918,881.78553,449.4175)"><path
           d="M 883.07143,475.24609 A 47.103967,47.103967 0 0 1 860.61198,442.56735 H 824.44791 L 863.7648,310.57494 a 131.46247,131.46247 0 0 0 -6.47727,2.45219 l -13.45695,-23.30819 a 158.17198,158.17198 0 0 0 -30.72478,17.73891 l 13.45708,23.30819 a 131.46247,131.46247 0 0 0 -23.44676,23.44673 l -23.3082,-13.457 a 158.17198,158.17198 0 0 0 -17.73893,30.72471 l 23.30821,13.45698 a 131.46247,131.46247 0 0 0 -8.5821,32.02881 h -26.91395 a 158.17198,158.17198 0 0 0 0,35.47784 h 26.91395 a 131.46247,131.46247 0 0 0 8.5821,32.02881 l -23.30821,13.45697 a 158.17198,158.17198 0 0 0 17.73893,30.72471 l 23.3082,-13.45698 a 131.46247,131.46247 0 0 0 23.44676,23.44672 l -13.45708,23.30817 a 158.17198,158.17198 0 0 0 29.99587,17.41885 z"
           style="fill:#4d4d4d;fill-opacity:1;stroke:#ffffff;stroke-width:1.10929;stroke-dasharray:none;stroke-opacity:1"
           id="path11" /><path
           d="m 980.44337,249.94437 -58.4026,137.58784 h 83.95463 l -178.91715,255.5203 79.97694,-208.34733 h -72.06174 l 55.03514,-184.76081 h 11.79325 z"
           style="fill:#ffff00;fill-opacity:1;stroke:#ffffff;stroke-width:1.10929;stroke-dasharray:none;stroke-opacity:1"
           id="path12" /></g></g></g></svg>
