<?xml version="1.0" encoding="UTF-8" standalone="no"?>
<!-- Created with Inkscape (http://www.inkscape.org/) -->

<svg
   width="600"
   height="400"
   viewBox="0 0 600 400"
   version="1.1"
   id="svg1"
   xml:space="preserve"
   inkscape:export-filename="Logo.png"
   inkscape:export-xdpi="96"
   inkscape:export-ydpi="96"
   inkscape:version="1.4.3 (0d15f75, 2025-12-25)"
   sodipodi:docname="Logo.svg"
   xmlns:inkscape="http://www.inkscape.org/namespaces/inkscape"
   xmlns:sodipodi="http://sodipodi.sourceforge.net/DTD/sodipodi-0.dtd"
   xmlns="http://www.w3.org/2000/svg"
   xmlns:svg="http://www.w3.org/2000/svg"><sodipodi:namedview
     id="namedview1"
     pagecolor="#ffffff"
     bordercolor="#000000"
     borderopacity="0.25"
     inkscape:showpageshadow="2"
     inkscape:pageopacity="0.0"
     inkscape:pagecheckerboard="0"
     inkscape:deskcolor="#d1d1d1"
     inkscape:document-units="px"
     showgrid="false"
     showguides="true"
     inkscape:zoom="0.67447918"
     inkscape:cx="342.48648"
     inkscape:cy="104.52509"
     inkscape:window-width="1920"
     inkscape:window-height="1017"
     inkscape:window-x="-8"
     inkscape:window-y="-8"
     inkscape:window-maximized="1"
     inkscape:current-layer="g25"><inkscape:grid
       id="grid1"
       units="px"
       originx="0"
       originy="0"
       spacingx="1"
       spacingy="1"
       empcolor="#0099e5"
       empopacity="0.30196078"
       color="#0099e5"
       opacity="0.14901961"
       empspacing="5"
       dotted="false"
       gridanglex="30"
       gridanglez="30"
       visible="false" /><sodipodi:guide
       position="1920,880"
       orientation="1080,0"
       id="guide2"
       inkscape:locked="false" /><sodipodi:guide
       position="1920,-200"
       orientation="0,-1920"
       id="guide3"
       inkscape:locked="false" /></sodipodi:namedview><defs
     id="defs1"><marker
       id="DistanceX"
       orient="auto"
       refX="0"
       refY="0"
       style="overflow:visible"><path
         d="M 3,-3 -3,3 M 0,-5 V 5"
         style="stroke:#000000;stroke-width:0.5"
         id="path1" /></marker><pattern
       id="Hatch"
       patternUnits="userSpaceOnUse"
       width="8"
       height="8"
       x="0"
       y="0"><path
         d="M8 4 l-4,4"
         stroke="#000000"
         stroke-width="0.25"
         linecap="square"
         id="path2" /><path
         d="M6 2 l-4,4"
         stroke="#000000"
         stroke-width="0.25"
         linecap="square"
         id="path3" /><path
         d="M4 0 l-4,4"
         stroke="#000000"
         stroke-width="0.25"
         linecap="square"
         id="path4" /></pattern><symbol
       id="*Model_Space" /><symbol
       id="*Paper_Space" /><symbol
       id="*Paper_Space0" /><symbol
       id="*U1"><path
         d="m 34.015748,1093.0939 a 202.20472,202.20472 0 0 0 -68.031496,0"
         style="fill:none;stroke:#000000"
         id="path5" /><path
         style="fill:none;stroke:#000000"
         d="m 34.0157,1093.09 v 61.74"
         id="path6" /><path
         style="fill:none;stroke:#000000"
         d="m -34.0157,1093.09 v 61.74"
         id="path7" /></symbol><symbol
       id="*U2"><path
         d="m 22.677165,1105.9543 a 202.20472,202.20472 0 0 0 -45.35433,0"
         style="fill:none;stroke:#000000"
         id="path8" /><path
         style="fill:none;stroke:#000000"
         d="m 22.6772,1140.36 v -34.41"
         id="path9" /><path
         style="fill:none;stroke:#000000"
         d="m -22.6772,1140.36 v -34.41"
         id="path10" /></symbol><symbol
       id="_None" /></defs><g
     inkscape:label="Capa 1"
     inkscape:groupmode="layer"
     id="layer1" /><g
     id="g25"
     transform="translate(-739.57057,-243.60482)"><path
       style="color:#000000;display:none;fill:#000000;stroke:none;stroke-width:3;stroke-dasharray:none"
       d="m 1220.0775,336.54573 -5.2788,-0.008 -7.2166,-0.009 -64.4169,111.18146 -61.7581,-111.35504 -98.49807,-0.13492 118.30357,205.55597 z m -3.0466,1.75335 -115.814,199.96323 -115.26565,-200.28045 94.42165,0.12956 62.7568,113.16124 65.4632,-112.98585 6.2036,0.008 z"
       id="path5-9"
       sodipodi:insensitive="true" /><path
       style="color:#000000;display:none;fill:#000000;stroke:#ffffff;stroke-width:3;stroke-dasharray:none"
       d="m 1001.5253,386.76743 -87.68927,154.12028 103.39337,1.20098 35.4318,-64.83696 z m -0.01,3.69426 49.0575,86.80394 -34.4214,62.98884 -99.20679,-1.15333 z"
       id="path7-9" /><path
       style="color:#000000;display:none;fill:#000000;stroke:none;stroke-width:3;stroke-dasharray:none"
       d="m 1226.7571,351.275 -53.9628,88.18174 57.5101,101.46346 103.5598,1.04567 z m -0.064,3.39832 104.216,185.54218 -99.595,-1.00515 -56.5218,-99.71998 z"
       id="path9-4" /><g
       id="g1"><path
         style="color:#000000;display:inline;fill:#008000;fill-opacity:0.999999;stroke:#ffffff;stroke-width:3;stroke-dasharray:none"
         d="m 1101.2156,540.01901 -116.78496,-202.91752 96.45946,0.13185 62.2572,112.2586 64.9401,-112.08474 6.7094,0.009 3.758,0.005 z"
         id="path4-8" /><path
         style="color:#000000;fill:#000080;fill-opacity:0.999999;stroke:#ffffff;stroke-width:3;stroke-dasharray:none"
         d="m 1016.6922,541.17185 -101.2995,-1.1778 86.1303,-151.38049 50.0954,88.64487 z"
         id="path6-8" /><path
         style="color:#000000;fill:#000080;fill-opacity:0.999999;stroke:#e6e6e6;stroke-width:3;stroke-dasharray:none"
         d="m 1332.386,541.09023 -101.5768,-1.02462 -57.0156,-100.59259 52.9313,-86.49831 z"
         id="path8-8" /><path
         d="m 886.09678,474.63985 a 47.103967,47.103967 0 0 1 -25.91346,-30.01366 l -35.94519,3.97283 24.57881,-135.51271 a 131.46247,131.46247 0 0 0 -6.16868,3.14891 l -15.93604,-21.6888 a 158.17198,158.17198 0 0 0 -28.5901,21.00684 l 15.93617,21.68878 a 131.46247,131.46247 0 0 0 -20.72909,25.88058 l -24.64546,-10.81501 a 158.17198,158.17198 0 0 0 -14.25628,32.48747 l 24.64546,10.81499 a 131.46247,131.46247 0 0 0 -5.01161,32.77775 l -26.75105,2.95665 a 158.17198,158.17198 0 0 0 3.89744,35.26311 l 26.75105,-2.95665 a 131.46247,131.46247 0 0 0 12.04871,30.89217 l -21.68882,15.93606 a 158.17198,158.17198 0 0 0 21.00685,28.59003 l 21.6888,-15.93607 a 131.46247,131.46247 0 0 0 25.88061,20.72905 l -10.8151,24.64543 a 158.17198,158.17198 0 0 0 31.72788,14.01821 z"
         style="fill:#4d4d4d;fill-opacity:1;stroke:#ffffff;stroke-width:3;stroke-dasharray:none;stroke-opacity:1"
         id="path11" /><path
         d="m 958.12871,240.0049 -42.93432,143.17095 83.4465,-9.22289 -149.76391,273.62884 56.60475,-215.87224 -71.62559,7.91639 34.40502,-189.68848 11.72187,-1.29555 z"
         style="fill:#ffff00;fill-opacity:1;stroke:#ffffff;stroke-width:3;stroke-dasharray:none;stroke-opacity:1"
         id="path12" /></g></g></svg>
