<?xml version="1.0" encoding="UTF-8" standalone="no"?>
<!-- Created with Inkscape (http://www.inkscape.org/) -->

<svg
   width="600"
   height="600"
   viewBox="0 0 600 600"
   version="1.1"
   id="svg1"
   xml:space="preserve"
   inkscape:export-filename="Logo.png"
   inkscape:export-xdpi="96"
   inkscape:export-ydpi="96"
   inkscape:version="1.4.3 (0d15f75, 2025-12-25)"
   sodipodi:docname="Logo.svg"
   xmlns:inkscape="http://www.inkscape.org/namespaces/inkscape"
   xmlns:sodipodi="http://sodipodi.sourceforge.net/DTD/sodipodi-0.dtd"
   xmlns="http://www.w3.org/2000/svg"
   xmlns:svg="http://www.w3.org/2000/svg"><sodipodi:namedview
     id="namedview1"
     pagecolor="#ffffff"
     bordercolor="#000000"
     borderopacity="0.25"
     inkscape:showpageshadow="2"
     inkscape:pageopacity="0.0"
     inkscape:pagecheckerboard="0"
     inkscape:deskcolor="#d1d1d1"
     inkscape:document-units="px"
     showgrid="false"
     showguides="true"
     inkscape:zoom="0.67447918"
     inkscape:cx="653.09651"
     inkscape:cy="137.14285"
     inkscape:window-width="1920"
     inkscape:window-height="1017"
     inkscape:window-x="-8"
     inkscape:window-y="-8"
     inkscape:window-maximized="1"
     inkscape:current-layer="svg1"><inkscape:grid
       id="grid1"
       units="px"
       originx="0"
       originy="0"
       spacingx="1"
       spacingy="1"
       empcolor="#0099e5"
       empopacity="0.30196078"
       color="#0099e5"
       opacity="0.14901961"
       empspacing="5"
       dotted="false"
       gridanglex="30"
       gridanglez="30"
       visible="false" /><sodipodi:guide
       position="1920,1080"
       orientation="1080,0"
       id="guide2"
       inkscape:locked="false" /><sodipodi:guide
       position="1920,0"
       orientation="0,-1920"
       id="guide3"
       inkscape:locked="false" /></sodipodi:namedview><defs
     id="defs1"><marker
       id="DistanceX"
       orient="auto"
       refX="0"
       refY="0"
       style="overflow:visible"><path
         d="M 3,-3 -3,3 M 0,-5 V 5"
         style="stroke:#000000;stroke-width:0.5"
         id="path1" /></marker><pattern
       id="Hatch"
       patternUnits="userSpaceOnUse"
       width="8"
       height="8"
       x="0"
       y="0"><path
         d="M8 4 l-4,4"
         stroke="#000000"
         stroke-width="0.25"
         linecap="square"
         id="path2" /><path
         d="M6 2 l-4,4"
         stroke="#000000"
         stroke-width="0.25"
         linecap="square"
         id="path3" /><path
         d="M4 0 l-4,4"
         stroke="#000000"
         stroke-width="0.25"
         linecap="square"
         id="path4" /></pattern><symbol
       id="*Model_Space" /><symbol
       id="*Paper_Space" /><symbol
       id="*Paper_Space0" /><symbol
       id="*U1"><path
         d="m 34.015748,1093.0939 a 202.20472,202.20472 0 0 0 -68.031496,0"
         style="fill:none;stroke:#000000"
         id="path5" /><path
         style="fill:none;stroke:#000000"
         d="m 34.0157,1093.09 v 61.74"
         id="path6" /><path
         style="fill:none;stroke:#000000"
         d="m -34.0157,1093.09 v 61.74"
         id="path7" /></symbol><symbol
       id="*U2"><path
         d="m 22.677165,1105.9543 a 202.20472,202.20472 0 0 0 -45.35433,0"
         style="fill:none;stroke:#000000"
         id="path8" /><path
         style="fill:none;stroke:#000000"
         d="m 22.6772,1140.36 v -34.41"
         id="path9" /><path
         style="fill:none;stroke:#000000"
         d="m -22.6772,1140.36 v -34.41"
         id="path10" /></symbol><symbol
       id="_None" /></defs><g
     id="g21"
     transform="translate(-300,-0.08443319)"><path
       d="m 776.14062,243.97852 75.62305,168.36523 a 299.2376,240.7322 0 0 0 22.5293,-33.88672 l -44.0957,-20.48047 a 248.70722,200.08127 0 0 0 16.23632,-48.74804 h 50.91602 a 299.2376,240.7322 0 0 0 0,-53.9961 h -50.91602 a 248.70722,200.08127 0 0 0 -16.23632,-48.74609 l 44.0957,-20.48047 a 299.2376,240.7322 0 0 0 -33.56055,-46.76172 l -44.0957,20.48047 A 248.70722,200.08127 0 0 0 752.2793,124.03906 L 777.73828,88.564453 A 299.2376,240.7322 0 0 0 722.51172,62.599609 L 650.82227,198.46875 h 28.28125 l 31.57812,-68.15625 9.54297,0.0156 6.98047,0.0137 -31.55469,68.12695 h 18.96875 l 21.41992,-43.76953 19.66016,43.76953 h 60.05273 z"
       style="fill:#4d4d4d;stroke:#ffffff;stroke-width:1.10929"
       id="path21" /><path
       d="M 690.10937,210.43555 579.70312,448.81055 679.77344,333.83789 664.67578,300.5293 708.76367,210.43555 Z"
       style="fill:#ffff00;stroke:#ffffff;stroke-width:1.10929"
       id="path20" /><path
       d="M 772.5918,468.72656 740.73047,468.32422 685.99023,347.55469 566.44141,484.91016 v 36.53515 a 299.2376,240.7322 0 0 0 67.11718,0 v -40.96289 a 248.70722,200.08127 0 0 0 60.59375,-13.0625 l 25.45899,35.47461 a 299.2376,240.7322 0 0 0 58.12695,-26.99805 z"
       style="fill:#4d4d4d;stroke:#ffffff;stroke-width:1.10929"
       id="path19" /><path
       d="m 532.98437,389.29102 -43.76562,-95.09375 h -14.52539 l 31.10937,68.83593 -46.85742,107.22266 -32.29883,-0.46875 -4.38476,6.10937 a 299.2376,240.7322 0 0 0 56.74805,26.51172 z"
       style="fill:#4d4d4d;stroke:#ffffff;stroke-width:1.10929"
       id="path18" /><path
       d="M 567.0625,463.33398 540.80664,406.28516 448.69531,599.32812 Z"
       style="fill:#ffff00;stroke:#ffffff;stroke-width:1.10929"
       id="path17" /><path
       d="m 567.78711,1.03125 -47.74609,128.95312 23.77734,0.041 81.67383,184.15234 48.0664,-103.74218 H 628.34961 L 738.83984,1.03125 H 590.09961 Z"
       style="fill:#ffff00;stroke:#ffffff;stroke-width:1.10929"
       id="path16" /><path
       d="m 438.83203,129.8457 65.69922,0.11328 13.57031,-36.650386 a 248.70722,200.08127 0 0 0 -12.2539,3.732422 l -25.45899,-35.47461 a 299.2376,240.7322 0 0 0 -58.12695,26.998047 l 25.45898,35.474607 a 248.70722,200.08127 0 0 0 -8.88867,5.80664 z"
       style="fill:#4d4d4d;stroke:#ffffff;stroke-width:1.10929"
       id="path15" /><path
       d="m 464.00391,239.41016 -43.88282,-95.34961 a 248.70722,200.08127 0 0 0 -16.75781,15.66406 l -44.0957,-20.48047 a 299.2376,240.7322 0 0 0 -33.56055,46.76172 l 44.0957,20.48047 a 248.70722,200.08127 0 0 0 -16.23632,48.74609 h -50.91602 a 299.2376,240.7322 0 0 0 0,53.9961 h 50.91602 a 248.70722,200.08127 0 0 0 16.23632,48.74804 l -44.0957,20.48047 a 299.2376,240.7322 0 0 0 22.16016,33.42383 l 90.31054,-198.48633 19.49024,43.12891 z"
       style="fill:#4d4d4d;stroke:#ffffff;stroke-width:1.10929"
       id="path14" /></g><g
     inkscape:label="Capa 1"
     inkscape:groupmode="layer"
     id="layer1" /><g
     id="g3-8"
     transform="matrix(1.3540397,0,0,1.6932202,-64.905196,-687.95711)"
     style="display:inline;stroke:none"><g
       id="path1-1-2"
       inkscape:transform-center-x="-0.090227599"
       inkscape:transform-center-y="32.926841"
       transform="matrix(0.95734511,0.01160277,-0.01160277,0.95734511,4.1168434,18.949807)"
       style="stroke:none"><path
         style="color:#000000;display:inline;fill:#008000;fill-opacity:0.999999;stroke:none;-inkscape-stroke:none"
         d="m 262.4247,689.42085 -121.63512,-205.54226 98.39513,-1.05801 64.89332,113.73973 64.85639,-115.13489 6.84412,-0.0736 3.83342,-0.0412 z"
         id="path4-8-4" /><path
         style="color:#000000;display:none;fill:#000000;stroke:none;stroke-width:1.00006;stroke-dasharray:none"
         d="m 381.1543,480.39844 -5.38477,0.0566 -7.36133,0.0801 -64.33398,114.20703 -64.37305,-112.82422 -100.47461,1.08008 123.2168,208.21484 z m -3.08594,1.82617 -115.66406,205.4043 -120.05274,-202.8711 96.31641,-1.03515 65.41406,114.65429 65.37891,-116.06054 6.32812,-0.0684 z"
         id="path5-9-5"
         sodipodi:insensitive="true" /></g><g
       id="path2-8-5"
       inkscape:transform-center-x="-0.30992436"
       inkscape:transform-center-y="-24.28393"
       transform="matrix(0.99266715,0,0,0.99266715,1.9532775,2.4319196)"
       style="stroke:none"
       inkscape:label="path2-8"><path
         style="color:#000000;fill:#000080;fill-opacity:0.999999;stroke:none;-inkscape-stroke:none"
         d="m 164.04571,685.73073 -99.668402,-1.15883 84.743432,-148.943 49.28881,87.21753 z"
         id="path6-8-1" /><path
         style="color:#000000;display:none;fill:#000000;stroke:none;-inkscape-stroke:none"
         d="m 149.12305,533.8125 -86.277347,151.63867 101.728517,1.18164 34.86133,-63.79297 z m -0.006,3.63477 48.26758,85.40625 -33.86719,61.9746 -97.609377,-1.13476 z"
         id="path7-9-7" /></g><g
       id="path3-7-1"
       inkscape:transform-center-x="-0.5671033"
       inkscape:transform-center-y="-29.985251"
       transform="matrix(0.93737712,0.01401322,-0.01401322,0.93737712,27.475889,40.925135)"
       style="stroke:none"><path
         style="color:#000000;fill:#000080;fill-opacity:0.999999;stroke:none;-inkscape-stroke:none"
         d="M 485.55779,677.76907 379.72937,678.28356 318.76974,574.3842 372.56126,483.45467 Z"
         id="path8-8-1" /><path
         style="color:#000000;display:none;fill:#000000;stroke:none;-inkscape-stroke:none"
         d="m 372.56836,481.68359 -54.83984,92.69922 61.48828,104.79883 107.89453,-0.52344 z m -0.0137,3.54102 111.45117,191.65625 -103.76367,0.50391 -60.43164,-102.99805 z"
         id="path9-4-5" /></g></g></svg>
